<svg xmlns="http://www.w3.org/2000/svg" width="16" height="16" viewBox="0 0 16 16">
    <defs>
        <filter id="prefix__a">
            <feColorMatrix in="SourceGraphic" values="0 0 0 0 0.000000 0 0 0 0 0.631373 0 0 0 0 0.000000 0 0 0 1.000000 0"/>
        </filter>
    </defs>
    <g fill="none" fill-rule="evenodd" filter="url(#prefix__a)" transform="translate(0 -3)">
        <g>
            <path d="M0 0H16V16H0z" transform="translate(0 3)"/>
            <path fill="#000" d="M8.757 1.285l.785.507c.08.053.175.08.272.075l.95-.06.075-.002c.51.002.975.283 1.206.732l.422.833c.042.085.11.153.197.193l.845.417c.481.238.771.737.74 1.267l-.06.936c-.004.099.016.195.06.284l.528.773c.3.442.3 1.017 0 1.458l-.515.787c-.055.078-.082.173-.075.268l.03.922c.033.53-.258 1.028-.74 1.267l-.845.416c-.087.04-.155.109-.197.194l-.423.833c-.227.45-.693.733-1.203.732-.025 0-.052 0-.079-.002l-.95-.06c-.095.002-.188.027-.271.075l-.785.52c-.217.143-.475.222-.739.222-.263 0-.52-.079-.74-.224l-.783-.505c-.08-.055-.175-.081-.272-.075l-.953.06-.075.002c-.51-.002-.975-.283-1.207-.732l-.421-.833c-.045-.082-.114-.15-.197-.193l-.845-.417c-.48-.238-.772-.737-.74-1.267l.06-.936c.002-.102-.018-.204-.06-.297l-.528-.773c-.3-.442-.3-1.017 0-1.459l.513-.773c.055-.078.082-.173.075-.268l-.06-.937c-.033-.53.258-1.028.74-1.267l.845-.416c.087-.04.155-.109.197-.194l.421-.833c.227-.45.695-.733 1.205-.732l.079.002.953.06c.103.002.207-.018.302-.06l.785-.52c.446-.297 1.031-.297 1.478 0zm1.438 7.318c-.856 0-1.551.685-1.551 1.53s.695 1.53 1.551 1.53c.857 0 1.552-.685 1.552-1.53-.002-.843-.695-1.528-1.552-1.53zm.379-3.645c-.127 0-.25.05-.34.139l-5.147 5.076c-.187.185-.187.485 0 .669.187.183.492.185.678 0l5.149-5.077c.186-.185.186-.485 0-.668-.09-.089-.214-.139-.34-.139zm-.379 4.592c.327 0 .592.262.592.583l-.008.095c-.046.277-.29.489-.584.489-.326 0-.591-.262-.591-.584 0-.321.265-.583.591-.583zm-4.39-5.275c-.856 0-1.551.685-1.55 1.53 0 .845.695 1.53 1.552 1.53.857 0 1.55-.685 1.55-1.53-.002-.845-.697-1.53-1.552-1.53zm0 .947c.327 0 .592.261.592.583-.002.322-.265.583-.592.583l-.096-.007c-.28-.046-.495-.287-.495-.576 0-.322.265-.583.591-.583z" transform="translate(0 3)"/>
        </g>
    </g>
</svg>
